<svg width="37" height="37" viewBox="0 0 37 37" fill="none" xmlns="http://www.w3.org/2000/svg">
<path d="M26.5 10.1667V26.5M18.3333 16.2917V26.5M10.1667 22.4167V26.5M6.08333 34.6667H30.5833C31.6663 34.6667 32.7049 34.2365 33.4707 33.4707C34.2365 32.7049 34.6667 31.6663 34.6667 30.5833V6.08333C34.6667 5.00037 34.2365 3.96175 33.4707 3.19598C32.7049 2.43021 31.6663 2 30.5833 2H6.08333C5.00037 2 3.96175 2.43021 3.19598 3.19598C2.43021 3.96175 2 5.00037 2 6.08333V30.5833C2 31.6663 2.43021 32.7049 3.19598 33.4707C3.96175 34.2365 5.00037 34.6667 6.08333 34.6667Z" stroke="white" stroke-width="3" stroke-linecap="round" stroke-linejoin="round"/>
</svg>
