<svg width="28" height="28" viewBox="0 0 28 28" fill="none" xmlns="http://www.w3.org/2000/svg">
<path d="M8.22222 6.77778V1V6.77778ZM19.7778 6.77778V1V6.77778ZM6.77778 12.5556H21.2222H6.77778ZM3.88889 27H24.1111C24.8773 27 25.6121 26.6956 26.1539 26.1539C26.6956 25.6121 27 24.8773 27 24.1111V6.77778C27 6.0116 26.6956 5.2768 26.1539 4.73502C25.6121 4.19325 24.8773 3.88889 24.1111 3.88889H3.88889C3.12271 3.88889 2.38791 4.19325 1.84614 4.73502C1.30436 5.2768 1 6.0116 1 6.77778V24.1111C1 24.8773 1.30436 25.6121 1.84614 26.1539C2.38791 26.6956 3.12271 27 3.88889 27Z" stroke="white" stroke-width="2" stroke-linecap="round" stroke-linejoin="round"/>
</svg>
