<svg width="29" height="29" viewBox="0 0 29 29" fill="none" xmlns="http://www.w3.org/2000/svg">
<path d="M10 11.5H10.015M19 11.5H19.015M18.742 18.742C17.6168 19.8668 16.091 20.4987 14.5 20.4987C12.909 20.4987 11.3832 19.8668 10.258 18.742H18.742ZM28 14.5C28 16.2728 27.6508 18.0283 26.9724 19.6662C26.2939 21.3041 25.2995 22.7924 24.0459 24.0459C22.7924 25.2995 21.3041 26.2939 19.6662 26.9724C18.0283 27.6508 16.2728 28 14.5 28C12.7272 28 10.9717 27.6508 9.33377 26.9724C7.69588 26.2939 6.20765 25.2995 4.95406 24.0459C3.70047 22.7924 2.70606 21.3041 2.02763 19.6662C1.34919 18.0283 1 16.2728 1 14.5C1 10.9196 2.42232 7.4858 4.95406 4.95406C7.4858 2.42232 10.9196 1 14.5 1C18.0804 1 21.5142 2.42232 24.0459 4.95406C26.5777 7.4858 28 10.9196 28 14.5Z" stroke="white" stroke-width="2" stroke-linecap="round" stroke-linejoin="round"/>
</svg>
