<svg width="40" height="42" viewBox="0 0 40 42" fill="none" xmlns="http://www.w3.org/2000/svg">
<path d="M15.3269 31.5556H24.6728M19.9999 2V4.11111M32.7278 7.56497L31.3136 9.05775M38 20.9999H36M4 20.9999H2M8.68618 9.05775L7.27197 7.56497M12.9288 28.464C9.02358 24.3418 9.02358 17.6583 12.9288 13.5361C16.8341 9.41394 23.1657 9.41394 27.071 13.5361C30.9762 17.6583 30.9762 24.3418 27.071 28.464L25.9768 29.6189C24.711 30.955 23.9999 32.7672 23.9999 34.6567V35.7778C23.9999 38.1096 22.209 40 19.9999 40C17.7908 40 15.9999 38.1096 15.9999 35.7778V34.6567C15.9999 32.7672 15.2888 30.955 14.023 29.6189L12.9288 28.464Z" stroke="white" stroke-width="3" stroke-linecap="round" stroke-linejoin="round"/>
</svg>
