<svg width="24" height="24" viewBox="0 0 24 24" fill="none" xmlns="http://www.w3.org/2000/svg">
<path d="M16.8363 7.26021V17.3893M11.7694 11.0586V17.3893M6.70259 14.857V17.3893M4.16917 22.4538H19.3697C20.0416 22.4538 20.686 22.187 21.1611 21.7121C21.6362 21.2372 21.9031 20.5931 21.9031 19.9215V4.72794C21.9031 4.05635 21.6362 3.41225 21.1611 2.93736C20.686 2.46247 20.0416 2.19568 19.3697 2.19568H4.16917C3.49726 2.19568 2.85287 2.46247 2.37776 2.93736C1.90266 3.41225 1.63574 4.05635 1.63574 4.72794V19.9215C1.63574 20.5931 1.90266 21.2372 2.37776 21.7121C2.85287 22.187 3.49726 22.4538 4.16917 22.4538Z" stroke="#7665FF" stroke-width="3" stroke-linecap="round" stroke-linejoin="round"/>
</svg>
