<svg width="111" height="115" viewBox="0 0 111 115" fill="none" xmlns="http://www.w3.org/2000/svg">
<circle cx="5" cy="5.53125" r="5" fill="#CFD4D9" fill-opacity="0.4"/>
<circle cx="5" cy="31.2969" r="5" fill="#CFD4D9" fill-opacity="0.4"/>
<circle cx="5" cy="57.0625" r="5" fill="#CFD4D9" fill-opacity="0.4"/>
<circle cx="5" cy="82.8281" r="5" fill="#CFD4D9" fill-opacity="0.4"/>
<circle cx="5" cy="108.594" r="5" fill="#CFD4D9" fill-opacity="0.4"/>
<circle cx="30.1797" cy="6.53125" r="5" fill="#CFD4D9" fill-opacity="0.4"/>
<circle cx="30.1797" cy="32.2969" r="5" fill="#CFD4D9" fill-opacity="0.4"/>
<circle cx="30.1797" cy="58.0625" r="5" fill="#CFD4D9" fill-opacity="0.4"/>
<circle cx="30.1797" cy="83.8281" r="5" fill="#CFD4D9" fill-opacity="0.4"/>
<circle cx="30.1797" cy="109.594" r="5" fill="#CFD4D9" fill-opacity="0.4"/>
<circle cx="55.3594" cy="6.53125" r="5" fill="#CFD4D9" fill-opacity="0.4"/>
<circle cx="55.3594" cy="32.2969" r="5" fill="#CFD4D9" fill-opacity="0.4"/>
<circle cx="55.3594" cy="58.0625" r="5" fill="#CFD4D9" fill-opacity="0.4"/>
<circle cx="55.3594" cy="83.8281" r="5" fill="#CFD4D9" fill-opacity="0.4"/>
<circle cx="55.3594" cy="109.594" r="5" fill="#CFD4D9" fill-opacity="0.4"/>
<circle cx="80.5391" cy="6.53125" r="5" fill="#CFD4D9" fill-opacity="0.4"/>
<circle cx="80.5391" cy="32.2969" r="5" fill="#CFD4D9" fill-opacity="0.4"/>
<circle cx="80.5391" cy="58.0625" r="5" fill="#CFD4D9" fill-opacity="0.4"/>
<circle cx="80.5391" cy="83.8281" r="5" fill="#CFD4D9" fill-opacity="0.4"/>
<circle cx="80.5391" cy="109.594" r="5" fill="#CFD4D9" fill-opacity="0.4"/>
<circle cx="105.719" cy="6.53125" r="5" fill="#CFD4D9" fill-opacity="0.4"/>
<circle cx="105.719" cy="32.2969" r="5" fill="#CFD4D9" fill-opacity="0.4"/>
<circle cx="105.719" cy="58.0625" r="5" fill="#CFD4D9" fill-opacity="0.4"/>
<circle cx="105.719" cy="83.8281" r="5" fill="#CFD4D9" fill-opacity="0.4"/>
<circle cx="105.719" cy="109.594" r="5" fill="#CFD4D9" fill-opacity="0.4"/>
</svg>
