<svg width="89" height="191" viewBox="0 0 89 191" fill="none" xmlns="http://www.w3.org/2000/svg">
<circle cx="5" cy="5" r="5" fill="#CFD4D9"/>
<circle cx="5" cy="30.7656" r="5" fill="#CFD4D9"/>
<circle cx="5" cy="56.5312" r="5" fill="#CFD4D9"/>
<circle cx="5" cy="82.2969" r="5" fill="#CFD4D9"/>
<circle cx="5" cy="108.062" r="5" fill="#CFD4D9"/>
<circle cx="5" cy="133.828" r="5" fill="#CFD4D9"/>
<circle cx="5" cy="159.594" r="5" fill="#CFD4D9"/>
<circle cx="5" cy="185.359" r="5" fill="#CFD4D9"/>
<circle cx="30.1798" cy="5" r="5" fill="#CFD4D9"/>
<circle cx="30.1798" cy="30.7656" r="5" fill="#CFD4D9"/>
<circle cx="30.1798" cy="56.5312" r="5" fill="#CFD4D9"/>
<circle cx="30.1798" cy="82.2969" r="5" fill="#CFD4D9"/>
<circle cx="30.1798" cy="108.062" r="5" fill="#CFD4D9"/>
<circle cx="30.1798" cy="133.828" r="5" fill="#CFD4D9"/>
<circle cx="30.1798" cy="159.594" r="5" fill="#CFD4D9"/>
<circle cx="30.1798" cy="185.359" r="5" fill="#CFD4D9"/>
<circle cx="55.3593" cy="5" r="5" fill="#CFD4D9"/>
<circle cx="55.3593" cy="30.7656" r="5" fill="#CFD4D9"/>
<circle cx="55.3593" cy="56.5312" r="5" fill="#CFD4D9"/>
<circle cx="55.3593" cy="82.2969" r="5" fill="#CFD4D9"/>
<circle cx="55.3593" cy="108.062" r="5" fill="#CFD4D9"/>
<circle cx="55.3593" cy="133.828" r="5" fill="#CFD4D9"/>
<circle cx="55.3593" cy="159.594" r="5" fill="#CFD4D9"/>
<circle cx="55.3593" cy="185.359" r="5" fill="#CFD4D9"/>
<circle cx="80.5391" cy="5" r="5" fill="#CFD4D9"/>
<circle cx="80.5391" cy="30.7656" r="5" fill="#CFD4D9"/>
<circle cx="80.5391" cy="56.5312" r="5" fill="#CFD4D9"/>
<circle cx="80.5391" cy="82.2969" r="5" fill="#CFD4D9"/>
<circle cx="80.5391" cy="108.062" r="5" fill="#CFD4D9"/>
<circle cx="80.5391" cy="133.828" r="5" fill="#CFD4D9"/>
<circle cx="80.5391" cy="159.594" r="5" fill="#CFD4D9"/>
<circle cx="80.5391" cy="185.359" r="5" fill="#CFD4D9"/>
</svg>
