<svg width="77" height="115" viewBox="0 0 77 109" fill="none" xmlns="http://www.w3.org/2000/svg">
<circle cx="4.5" cy="2.5" r="4.5" fill="#AEB5BC"/>
<circle cx="4.5" cy="19.5" r="4.5" fill="#AEB5BC"/>
<circle cx="4.5" cy="36.5" r="4.5" fill="#AEB5BC"/>
<circle cx="4.5" cy="53.5" r="4.5" fill="#AEB5BC"/>
<circle cx="4.5" cy="70.5" r="4.5" fill="#AEB5BC"/>
<circle cx="4.5" cy="87.5" r="4.5" fill="#AEB5BC"/>
<circle cx="4.5" cy="104.5" r="4.5" fill="#AEB5BC"/>
<circle cx="21.5" cy="2.5" r="4.5" fill="#AEB5BC"/>
<circle cx="21.5" cy="19.5" r="4.5" fill="#AEB5BC"/>
<circle cx="21.5" cy="36.5" r="4.5" fill="#AEB5BC"/>
<circle cx="21.5" cy="53.5" r="4.5" fill="#AEB5BC"/>
<circle cx="21.5" cy="70.5" r="4.5" fill="#AEB5BC"/>
<circle cx="21.5" cy="87.5" r="4.5" fill="#AEB5BC"/>
<circle cx="21.5" cy="104.5" r="4.5" fill="#AEB5BC"/>
<circle cx="38.5" cy="2.5" r="4.5" fill="#AEB5BC"/>
<circle cx="38.5" cy="19.5" r="4.5" fill="#AEB5BC"/>
<circle cx="38.5" cy="36.5" r="4.5" fill="#AEB5BC"/>
<circle cx="38.5" cy="53.5" r="4.5" fill="#AEB5BC"/>
<circle cx="38.5" cy="70.5" r="4.5" fill="#AEB5BC"/>
<circle cx="38.5" cy="87.5" r="4.5" fill="#AEB5BC"/>
<circle cx="38.5" cy="104.5" r="4.5" fill="#AEB5BC"/>
<circle cx="55.5" cy="2.5" r="4.5" fill="#AEB5BC"/>
<circle cx="55.5" cy="19.5" r="4.5" fill="#AEB5BC"/>
<circle cx="55.5" cy="36.5" r="4.5" fill="#AEB5BC"/>
<circle cx="55.5" cy="53.5" r="4.5" fill="#AEB5BC"/>
<circle cx="55.5" cy="70.5" r="4.5" fill="#AEB5BC"/>
<circle cx="55.5" cy="87.5" r="4.5" fill="#AEB5BC"/>
<circle cx="55.5" cy="104.5" r="4.5" fill="#AEB5BC"/>
<circle cx="72.5" cy="2.5" r="4.5" fill="#AEB5BC"/>
<circle cx="72.5" cy="19.5" r="4.5" fill="#AEB5BC"/>
<circle cx="72.5" cy="36.5" r="4.5" fill="#AEB5BC"/>
<circle cx="72.5" cy="53.5" r="4.5" fill="#AEB5BC"/>
<circle cx="72.5" cy="70.5" r="4.5" fill="#AEB5BC"/>
<circle cx="72.5" cy="87.5" r="4.5" fill="#AEB5BC"/>
<circle cx="72.5" cy="104.5" r="4.5" fill="#AEB5BC"/>
</svg>
